# File created by Blade
# Date/Time:  Wed Jan 21 17:47:32 2015
# Frame Rate: 120.000 fps
#------------------------------------------------------
:FULLY-SPECIFIED
:DEGREES
1305
root 20.505773 28.000410 -18.111817 -152.872404 50.778777 -204.755122
Spine 41.007307 16.263369 34.084228
Head -16.996082 -0.126216 -20.965515
LeftShoulder -18.350361 -26.664079 20.761630
LeftArm -31.745470 4.775907 -5.267711
LeftForeArm -41.674120 -0.000000 -2.490306
LeftHand -9.975629 0.000000 20.507151
LeftHandThumb1 -26.253704 0.000000 33.147579
RightShoulder 12.136297 10.415025 -36.896915
RightArm 9.853854 38.460828 24.953205
RightForeArm -1.113391 0.000000 3.827967
RightHand -4.511681 -0.000000 19.428059
RightHandThumb1 -24.326973 -0.000000 -32.862282
LeftUpLeg -16.047728 19.269911 -3.096102
LeftLeg -2.680476 -0.000000 0.000000
LeftFoot -35.732617 11.549471 -28.145647
LeftToeBase 29.735611 -0.000000 -0.000000
RightUpLeg -110.079295 -20.407562 2.078379
RightLeg 72.423781 -0.000000 -0.000000
RightFoot -26.058025 -18.841020 14.004399
RightToeBase 21.895338 -0.000000 -0.000000
1306
root 20.476708 28.029662 -18.113908 -152.760201 50.857857 -204.534641
Spine 40.502283 15.769356 33.648454
Head -16.717862 -0.962663 -20.293465
LeftShoulder -18.024056 -26.989852 20.865901
LeftArm -31.254560 4.888674 -5.066796
LeftForeArm -41.725568 -0.000000 -2.396879
LeftHand -9.878150 -0.000000 21.181155
LeftHandThumb1 -26.253704 0.000000 33.147579
RightShoulder 12.027223 10.568239 -36.816217
RightArm 10.067167 38.861406 25.291465
RightForeArm -1.438909 -0.000000 4.049255
RightHand -4.896886 -0.000000 18.504176
RightHandThumb1 -24.326973 -0.000000 -32.862282
LeftUpLeg -16.080432 19.457457 -3.068616
LeftLeg -2.610419 -0.000000 0.000000
LeftFoot -35.764353 11.532631 -27.964613
LeftToeBase 29.873380 -0.000000 -0.000000
RightUpLeg -109.754420 -20.292504 1.909321
RightLeg 72.098119 -0.000000 -0.000000
RightFoot -26.057537 -18.661823 14.018193
RightToeBase 22.176632 -0.000000 -0.000000
1307
root 20.449160 28.057215 -18.114136 -152.646299 50.961047 -204.278899
Spine 40.050076 15.308425 33.244553
Head -16.454537 -1.846234 -19.593841
LeftShoulder -17.675539 -27.402571 21.012272
LeftArm -30.777258 4.894089 -4.788779
LeftForeArm -41.643654 0.000000 -2.260323
LeftHand -9.867718 -0.000000 21.870480
LeftHandThumb1 -26.253704 0.000000 33.147579
RightShoulder 11.904115 10.661788 -36.739117
RightArm 10.243484 39.425359 25.676685
RightForeArm -1.987785 -0.000000 4.308976
RightHand -5.141928 -0.000000 17.531029
RightHandThumb1 -24.326973 -0.000000 -32.862282
LeftUpLeg -16.091708 19.675274 -3.021091
LeftLeg -2.529464 -0.000000 0.000000
LeftFoot -35.830383 11.506195 -27.815674
LeftToeBase 29.994965 -0.000000 -0.000000
RightUpLeg -109.375944 -20.128837 1.699779
RightLeg 71.755837 -0.000000 -0.000000
RightFoot -26.042043 -18.542167 14.061896
RightToeBase 22.337921 -0.000000 -0.000000
1308
root 20.414282 28.084072 -18.117423 -152.562781 50.992327 -204.133091
Spine 39.474779 14.798432 32.791692
Head -16.144071 -2.678405 -18.909596
LeftShoulder -17.388556 -27.785922 21.234226
LeftArm -30.207858 4.973730 -4.673537
LeftForeArm -41.691268 -0.000000 -2.158337
LeftHand -9.703434 0.000000 22.629512
LeftHandThumb1 -26.253704 0.000000 33.147579
RightShoulder 11.837864 10.869550 -36.636291
RightArm 10.047544 39.579632 25.851250
RightForeArm -2.402949 -0.000000 4.804427
RightHand -5.441254 -0.000000 16.567894
RightHandThumb1 -24.326973 -0.000000 -32.862282
LeftUpLeg -16.177068 19.788767 -3.037307
LeftLeg -2.437344 -0.000000 0.000000
LeftFoot -35.902008 11.521047 -27.619667
LeftToeBase 30.117989 -0.000000 -0.000000
RightUpLeg -109.105958 -20.069489 1.526377
RightLeg 71.452789 -0.000000 -0.000000
RightFoot -26.028196 -18.393369 14.153602
RightToeBase 22.446242 -0.000000 -0.000000
1309
root 20.383076 28.112712 -18.119034 -152.393106 51.045247 -203.833223
Spine 38.945492 14.275131 32.483419
Head -15.843149 -3.703323 -18.265094
LeftShoulder -16.996089 -28.207030 21.339837
LeftArm -29.712478 5.090644 -4.503086
LeftForeArm -41.808607 -0.000000 -2.029751
LeftHand -9.655238 -0.000000 23.317781
LeftHandThumb1 -26.253704 0.000000 33.147579
RightShoulder 11.833506 10.950887 -36.590472
RightArm 9.836872 39.805027 26.007780
RightForeArm -2.916749 -0.000000 5.301518
RightHand -5.570694 0.000000 15.469496
RightHandThumb1 -24.326973 -0.000000 -32.862282
LeftUpLeg -16.215285 19.972592 -2.962963
LeftLeg -2.366152 -0.000000 0.000000
LeftFoot -36.004721 11.540287 -27.429306
LeftToeBase 30.334476 -0.000000 -0.000000
RightUpLeg -108.754651 -19.956179 1.399036
RightLeg 71.126741 -0.000000 -0.000000
RightFoot -26.073991 -18.213691 14.216011
RightToeBase 22.857384 -0.000000 -0.000000
1310
root 20.350243 28.138147 -18.121368 -152.281356 51.107554 -203.602584
Spine 38.476374 13.802481 32.106362
Head -15.555544 -4.433527 -17.565047
LeftShoulder -16.761016 -28.679387 21.614190
LeftArm -29.113382 4.978782 -4.350164
LeftForeArm -41.744978 -0.000000 -1.790560
LeftHand -9.587511 -0.000000 24.216235
LeftHandThumb1 -26.253704 0.000000 33.147579
RightShoulder 11.639762 10.948829 -36.499127
RightArm 9.751875 40.032424 26.267300
RightForeArm -3.584482 -0.000000 5.921743
RightHand -5.698182 -0.000000 14.220950
RightHandThumb1 -24.326973 -0.000000 -32.862282
LeftUpLeg -16.250476 20.161136 -2.938757
LeftLeg -2.294193 -0.000000 0.000000
LeftFoot -36.106481 11.554807 -27.214625
LeftToeBase 30.513633 -0.000000 -0.000000
RightUpLeg -108.379044 -19.843284 1.150354
RightLeg 70.828236 -0.000000 -0.000000
RightFoot -26.172135 -17.892603 14.403301
RightToeBase 23.152841 -0.000000 -0.000000
1311
root 20.313967 28.162644 -18.124336 -152.215226 51.148872 -203.400161
Spine 38.022589 13.240607 31.670347
Head -15.384639 -5.204108 -16.834172
LeftShoulder -16.572792 -28.981947 21.908085
LeftArm -28.544415 4.637509 -4.187263
LeftForeArm -41.724442 -0.000000 -1.474334
LeftHand -9.588750 -0.000000 25.132394
LeftHandThumb1 -26.253704 0.000000 33.147579
RightShoulder 11.540001 10.804528 -36.333941
RightArm 9.579002 40.179115 26.324718
RightForeArm -4.212482 -0.000000 6.631368
RightHand -5.764729 -0.000000 13.037303
RightHandThumb1 -24.326973 -0.000000 -32.862282
LeftUpLeg -16.267162 20.315612 -2.920456
LeftLeg -2.220601 -0.000000 0.000000
LeftFoot -36.228717 11.622490 -26.990755
LeftToeBase 30.699332 -0.000000 -0.000000
RightUpLeg -107.982288 -19.773233 0.893758
RightLeg 70.525985 -0.000000 -0.000000
RightFoot -26.264077 -17.540545 14.529712
RightToeBase 23.640629 -0.000000 -0.000000
1312
root 20.279894 28.184312 -18.127817 -152.149523 51.160094 -203.202934
Spine 37.557103 12.679154 31.249801
Head -15.232394 -5.966134 -16.052594
LeftShoulder -16.356337 -29.531595 22.290381
LeftArm -28.079359 4.424913 -4.034597
LeftForeArm -41.490408 -0.000000 -1.113002
LeftHand -9.582130 -0.000000 25.845313
LeftHandThumb1 -26.253704 0.000000 33.147579
RightShoulder 11.344274 10.741165 -36.078462
RightArm 9.428646 40.117003 26.354879
RightForeArm -4.889333 -0.000000 7.354978
RightHand -5.662853 -0.000000 11.738446
RightHandThumb1 -24.326973 -0.000000 -32.862282
LeftUpLeg -16.274068 20.441763 -2.880041
LeftLeg -2.151905 -0.000000 0.000000
LeftFoot -36.353309 11.668407 -26.783696
LeftToeBase 30.939197 -0.000000 -0.000000
RightUpLeg -107.619008 -19.762417 0.675782
RightLeg 70.281860 -0.000000 -0.000000
RightFoot -26.337336 -16.876953 14.801737
RightToeBase 23.832176 -0.000000 -0.000000
1313
root 20.248006 28.205723 -18.132219 -152.088387 51.198462 -202.982533
Spine 37.127420 12.112499 30.866288
Head -15.037765 -6.709005 -15.382126
LeftShoulder -16.044898 -29.900977 22.393488
LeftArm -27.501129 4.068163 -3.727761
LeftForeArm -41.355079 -0.000000 -0.817032
LeftHand -9.552563 -0.000000 26.669971
LeftHandThumb1 -26.253704 0.000000 33.147579
RightShoulder 11.144824 10.760644 -35.850469
RightArm 9.046762 39.526554 26.271338
RightForeArm -5.266793 -0.000000 8.299034
RightHand -5.661182 -0.000000 10.359444
RightHandThumb1 -24.326973 -0.000000 -32.862282
LeftUpLeg -16.254053 20.635739 -2.843539
LeftLeg -2.089524 -0.000000 0.000000
LeftFoot -36.447578 11.660269 -26.609341
LeftToeBase 31.074273 -0.000000 -0.000000
RightUpLeg -107.183893 -19.707239 0.391331
RightLeg 70.004240 -0.000000 -0.000000
RightFoot -26.470395 -16.392978 14.778125
RightToeBase 24.545679 -0.000000 -0.000000
1314
root 20.217338 28.225589 -18.137805 -152.027200 51.245829 -202.749510
Spine 36.725959 11.565668 30.493887
Head -14.860592 -7.506804 -14.682748
LeftShoulder -15.738424 -30.354113 22.561901
LeftArm -26.939585 3.835913 -3.545732
LeftForeArm -41.203931 0.000000 -0.525322
LeftHand -9.483712 -0.000000 27.420892
LeftHandThumb1 -26.253704 0.000000 33.147579
RightShoulder 10.899730 10.643803 -35.614785
RightArm 8.834506 39.577843 26.367568
RightForeArm -6.223398 -0.000000 9.230150
RightHand -5.530353 -0.000000 9.009518
RightHandThumb1 -24.326973 -0.000000 -32.862282
LeftUpLeg -16.246654 20.921955 -2.824498
LeftLeg -1.990714 -0.000000 0.000000
LeftFoot -36.530770 11.571400 -26.435208
LeftToeBase 31.242071 -0.000000 -0.000000
RightUpLeg -106.736396 -19.610356 0.082803
RightLeg 69.716399 -0.000000 -0.000000
RightFoot -26.570140 -16.046549 14.942666
RightToeBase 24.764131 -0.000000 -0.000000
1315
root 20.180681 28.245586 -18.147581 -152.023222 51.276263 -202.624460
Spine 36.265574 10.984340 30.039290
Head -14.654722 -8.252127 -13.952300
LeftShoulder -15.487683 -30.793724 22.814898
LeftArm -26.317152 3.684371 -3.504459
LeftForeArm -41.123081 -0.000000 -0.305615
LeftHand -9.471939 -0.000000 28.203529
LeftHandThumb1 -26.253704 0.000000 33.147579
RightShoulder 10.630627 10.540184 -35.336014
RightArm 8.566154 39.376336 26.455384
RightForeArm -6.875690 0.000000 10.274489
RightHand -5.417051 -0.000000 7.343541
RightHandThumb1 -24.326973 -0.000000 -32.862282
LeftUpLeg -16.218091 21.001337 -2.825324
LeftLeg -1.951731 -0.000000 0.000000
LeftFoot -36.613208 11.620846 -26.324962
LeftToeBase 31.284919 -0.000000 -0.000000
RightUpLeg -106.379714 -19.563577 -0.186765
RightLeg 69.453049 -0.000000 -0.000000
RightFoot -26.658487 -15.769623 15.028406
RightToeBase 25.107131 -0.000000 -0.000000
1316
root 20.146847 28.263522 -18.156164 -152.002756 51.349606 -202.474064
Spine 35.858204 10.432785 29.571077
Head -14.516023 -9.012073 -13.187705
LeftShoulder -15.283585 -31.177370 23.041846
LeftArm -25.614556 3.330558 -3.408673
LeftForeArm -40.890059 0.000000 -0.132942
LeftHand -9.418611 0.000000 28.879035
LeftHandThumb1 -26.253704 0.000000 33.147579
RightShoulder 10.284306 10.369125 -35.096145
RightArm 8.516134 39.874870 26.856953
RightForeArm -8.090717 -0.000000 11.300783
RightHand -5.340296 -0.000000 5.780361
RightHandThumb1 -24.326973 -0.000000 -32.862282
LeftUpLeg -16.167211 21.097015 -2.807455
LeftLeg -1.926511 -0.000000 0.000000
LeftFoot -36.707959 11.695464 -26.217274
LeftToeBase 31.374309 -0.000000 -0.000000
RightUpLeg -106.104944 -19.443629 -0.321193
RightLeg 69.194255 -0.000000 -0.000000
RightFoot -26.714776 -15.802652 14.907209
RightToeBase 24.972896 -0.000000 -0.000000
1317
root 20.118557 28.278249 -18.164055 -152.024968 51.452657 -202.298097
Spine 35.542854 9.899328 29.140669
Head -14.392532 -9.868845 -12.429413
LeftShoulder -14.997388 -31.577523 23.137222
LeftArm -24.862391 3.158304 -3.343824
LeftForeArm -40.766616 -0.000000 0.013794
LeftHand -9.405470 0.000000 29.524471
LeftHandThumb1 -26.253704 0.000000 33.147579
RightShoulder 10.013172 10.469952 -34.762542
RightArm 7.844196 39.492004 26.841330
RightForeArm -8.537705 -0.000000 12.767444
RightHand -5.759147 0.000000 3.936333
RightHandThumb1 -24.326973 -0.000000 -32.862282
LeftUpLeg -16.022836 21.220261 -2.741092
LeftLeg -1.918355 -0.000000 0.000000
LeftFoot -36.786040 11.759909 -26.128823
LeftToeBase 31.480199 -0.000000 -0.000000
RightUpLeg -105.803571 -19.267932 -0.465518
RightLeg 68.976594 -0.000000 -0.000000
RightFoot -26.631133 -15.912136 15.025936
RightToeBase 24.860149 -0.000000 -0.000000
